<svg width="18" height="18" viewBox="0 0 18 18" fill="none" xmlns="http://www.w3.org/2000/svg">
<path d="M6.41602 1.89844V3.9674" stroke="#1E45E1" stroke-width="1.03448" stroke-miterlimit="10" stroke-linecap="round" stroke-linejoin="round"/>
<path d="M11.9316 1.89844V3.9674" stroke="#1E45E1" stroke-width="1.03448" stroke-miterlimit="10" stroke-linecap="round" stroke-linejoin="round"/>
<path d="M3.3125 6.78516H15.0366" stroke="#1E45E1" stroke-width="1.03448" stroke-miterlimit="10" stroke-linecap="round" stroke-linejoin="round"/>
<path d="M16.0719 13.6219C16.0719 14.1391 15.9271 14.6288 15.6719 15.0426C15.1961 15.8426 14.3202 16.3805 13.3133 16.3805C12.6168 16.3805 11.9823 16.1253 11.4995 15.6909C11.2857 15.5116 11.0995 15.2909 10.9547 15.0426C10.6995 14.6288 10.5547 14.1391 10.5547 13.6219C10.5547 12.0978 11.7892 10.8633 13.3133 10.8633C14.1409 10.8633 14.8788 11.2288 15.3823 11.8012C15.8099 12.2909 16.0719 12.9253 16.0719 13.6219Z" stroke="#1E45E1" stroke-width="1.03879" stroke-miterlimit="10" stroke-linecap="round" stroke-linejoin="round"/>
<path d="M12.2383 13.6212L12.921 14.3039L14.39 12.9453" stroke="#1E45E1" stroke-width="1.03879" stroke-linecap="round" stroke-linejoin="round"/>
<path d="M15.3806 6.38187V11.8025C14.8771 11.2301 14.1392 10.8646 13.3116 10.8646C11.7875 10.8646 10.553 12.0991 10.553 13.6232C10.553 14.1405 10.6978 14.6301 10.953 15.0439C11.0978 15.2922 11.284 15.5129 11.4978 15.6922H6.41507C4.00128 15.6922 2.9668 14.3129 2.9668 12.2439V6.38187C2.9668 4.3129 4.00128 2.93359 6.41507 2.93359H11.9323C14.3461 2.93359 15.3806 4.3129 15.3806 6.38187Z" stroke="#1E45E1" stroke-width="1.03879" stroke-miterlimit="10" stroke-linecap="round" stroke-linejoin="round"/>
</svg>
