<svg width="18" height="18" viewBox="0 0 18 18" fill="none" xmlns="http://www.w3.org/2000/svg">
<path d="M5.25 9.75H9M5.25 12.75H12M14.25 6C14.8467 6 15.419 5.76295 15.841 5.34099C16.2629 4.91903 16.5 4.34674 16.5 3.75C16.5 3.15326 16.2629 2.58097 15.841 2.15901C15.419 1.73705 14.8467 1.5 14.25 1.5C13.6533 1.5 13.081 1.73705 12.659 2.15901C12.2371 2.58097 12 3.15326 12 3.75C12 4.34674 12.2371 4.91903 12.659 5.34099C13.081 5.76295 13.6533 6 14.25 6Z" stroke="#1E45E1" stroke-linecap="round" stroke-linejoin="round"/>
<path d="M10.5 1.5H6.75C3 1.5 1.5 3 1.5 6.75V11.25C1.5 15 3 16.5 6.75 16.5H11.25C15 16.5 16.5 15 16.5 11.25V7.5" stroke="#1E45E1" stroke-linecap="round" stroke-linejoin="round"/>
</svg>
