<svg width="16" height="17" viewBox="0 0 16 17" fill="none" xmlns="http://www.w3.org/2000/svg">
<path d="M7.33398 1.83398H6.00065C2.66732 1.83398 1.33398 3.16732 1.33398 6.50065V10.5007C1.33398 13.834 2.66732 15.1673 6.00065 15.1673H10.0007C13.334 15.1673 14.6673 13.834 14.6673 10.5007V9.16732" stroke="#1E45E1" stroke-linecap="round" stroke-linejoin="round"/>
<path d="M10.6933 2.5135L5.43992 7.76684C5.23992 7.96684 5.03992 8.36017 4.99992 8.64684L4.71325 10.6535C4.60659 11.3802 5.11992 11.8868 5.84659 11.7868L7.85325 11.5002C8.13325 11.4602 8.52659 11.2602 8.73325 11.0602L13.9866 5.80684C14.8933 4.90017 15.3199 3.84684 13.9866 2.5135C12.6533 1.18017 11.5999 1.60684 10.6933 2.5135Z" stroke="#1E45E1" stroke-miterlimit="10" stroke-linecap="round" stroke-linejoin="round"/>
<path d="M9.93945 3.26758C10.3861 4.86091 11.6328 6.10758 13.2328 6.56091" stroke="#1E45E1" stroke-miterlimit="10" stroke-linecap="round" stroke-linejoin="round"/>
</svg>
