<svg width="20" height="20" viewBox="0 0 20 20" fill="none" xmlns="http://www.w3.org/2000/svg">
<path d="M11.666 4.16667C11.666 3.25 10.916 2.5 9.99935 2.5C9.08268 2.5 8.33268 3.25 8.33268 4.16667C8.33268 5.08333 9.08268 5.83333 9.99935 5.83333C10.916 5.83333 11.666 5.08333 11.666 4.16667Z" fill="#222222"/>
<path d="M11.666 15.8327C11.666 14.916 10.916 14.166 9.99935 14.166C9.08268 14.166 8.33268 14.916 8.33268 15.8327C8.33268 16.7493 9.08268 17.4993 9.99935 17.4993C10.916 17.4993 11.666 16.7493 11.666 15.8327Z" fill="#222222"/>
<path d="M11.666 10.0007C11.666 9.08398 10.916 8.33398 9.99935 8.33398C9.08268 8.33398 8.33268 9.08398 8.33268 10.0007C8.33268 10.9173 9.08268 11.6673 9.99935 11.6673C10.916 11.6673 11.666 10.9173 11.666 10.0007Z" fill="#222222"/>
</svg>
