<svg width="20" height="21" viewBox="0 0 20 21" fill="none" xmlns="http://www.w3.org/2000/svg">
<path d="M6.66663 10.6667H12.5M6.66663 14H10.3166M8.33329 5.49999H11.6666C13.3333 5.49999 13.3333 4.66666 13.3333 3.83332C13.3333 2.16666 12.5 2.16666 11.6666 2.16666H8.33329C7.49996 2.16666 6.66663 2.16666 6.66663 3.83332C6.66663 5.49999 7.49996 5.49999 8.33329 5.49999Z" stroke="#4B4B4B" stroke-width="1.3" stroke-miterlimit="10" stroke-linecap="round" stroke-linejoin="round"/>
<path d="M13.3333 3.85001C16.1083 4.00001 17.5 5.02501 17.5 8.83334V13.8333C17.5 17.1667 16.6667 18.8333 12.5 18.8333H7.5C3.33333 18.8333 2.5 17.1667 2.5 13.8333V8.83334C2.5 5.03334 3.89167 4.00001 6.66667 3.85001" stroke="#4B4B4B" stroke-width="1.3" stroke-miterlimit="10" stroke-linecap="round" stroke-linejoin="round"/>
</svg>
