<svg width="23" height="23" viewBox="0 0 23 23" fill="none" xmlns="http://www.w3.org/2000/svg">
<path d="M11.5 14.375C13.0878 14.375 14.375 13.0878 14.375 11.5C14.375 9.91218 13.0878 8.625 11.5 8.625C9.91218 8.625 8.625 9.91218 8.625 11.5C8.625 13.0878 9.91218 14.375 11.5 14.375Z" stroke="#292D32" stroke-width="1.5" stroke-miterlimit="10" stroke-linecap="round" stroke-linejoin="round"/>
<path d="M1.91663 12.3433V10.6567C1.91663 9.65999 2.73121 8.83582 3.73746 8.83582C5.47204 8.83582 6.18121 7.60916 5.30913 6.10457C4.81079 5.24207 5.10788 4.12082 5.97996 3.62249L7.63788 2.67374C8.39496 2.22332 9.37246 2.49166 9.82288 3.24874L9.92829 3.43082C10.7908 4.93541 12.2091 4.93541 13.0812 3.43082L13.1866 3.24874C13.637 2.49166 14.6145 2.22332 15.3716 2.67374L17.0295 3.62249C17.9016 4.12082 18.1987 5.24207 17.7004 6.10457C16.8283 7.60916 17.5375 8.83582 19.272 8.83582C20.2687 8.83582 21.0929 9.65041 21.0929 10.6567V12.3433C21.0929 13.34 20.2783 14.1642 19.272 14.1642C17.5375 14.1642 16.8283 15.3908 17.7004 16.8954C18.1987 17.7675 17.9016 18.8792 17.0295 19.3775L15.3716 20.3262C14.6145 20.7767 13.637 20.5083 13.1866 19.7512L13.0812 19.5692C12.2187 18.0646 10.8004 18.0646 9.92829 19.5692L9.82288 19.7512C9.37246 20.5083 8.39496 20.7767 7.63788 20.3262L5.97996 19.3775C5.10788 18.8792 4.81079 17.7579 5.30913 16.8954C6.18121 15.3908 5.47204 14.1642 3.73746 14.1642C2.73121 14.1642 1.91663 13.34 1.91663 12.3433Z" stroke="#292D32" stroke-width="1.5" stroke-miterlimit="10" stroke-linecap="round" stroke-linejoin="round"/>
</svg>
