<svg width="18" height="18" viewBox="0 0 18 18" fill="none" xmlns="http://www.w3.org/2000/svg">
<path d="M3.12754 11.475L6.52504 14.8725C7.19705 15.5425 8.10732 15.9188 9.05629 15.9188C10.0053 15.9188 10.9155 15.5425 11.5875 14.8725L14.88 11.58C15.5501 10.908 15.9263 9.99771 15.9263 9.04874C15.9263 8.09976 15.5501 7.1895 14.88 6.51749L11.475 3.12749C11.123 2.77447 10.7008 2.49927 10.2357 2.31969C9.77059 2.14011 9.27298 2.06016 8.77504 2.08499L5.02504 2.26499C3.52504 2.33249 2.33254 3.52499 2.25754 5.01749L2.07754 8.76749C2.03254 9.77999 2.41504 10.7625 3.12754 11.475Z" stroke="#1E45E1" stroke-linecap="round" stroke-linejoin="round"/>
<path d="M7.125 9C7.62228 9 8.09919 8.80246 8.45083 8.45083C8.80246 8.09919 9 7.62228 9 7.125C9 6.62772 8.80246 6.15081 8.45083 5.79917C8.09919 5.44754 7.62228 5.25 7.125 5.25C6.62772 5.25 6.15081 5.44754 5.79917 5.79917C5.44754 6.15081 5.25 6.62772 5.25 7.125C5.25 7.62228 5.44754 8.09919 5.79917 8.45083C6.15081 8.80246 6.62772 9 7.125 9Z" stroke="#1E45E1" stroke-linecap="round"/>
</svg>
