<svg width="100" height="100" viewBox="0 0 100 100" fill="none" xmlns="http://www.w3.org/2000/svg">
<circle cx="50" cy="50" r="50" fill="#DCDCDC"/>
<path d="M50.0007 23.333C43.014 23.333 37.334 29.013 37.334 35.9997C37.334 42.853 42.694 48.3997 49.6807 48.6397C49.894 48.613 50.1073 48.613 50.2673 48.6397C50.3207 48.6397 50.3473 48.6397 50.4007 48.6397C50.4273 48.6397 50.4273 48.6397 50.454 48.6397C57.2807 48.3997 62.6407 42.853 62.6673 35.9997C62.6673 29.013 56.9873 23.333 50.0007 23.333Z" fill="#4B4B4B"/>
<path d="M63.5466 55.7337C56.1066 50.7737 43.9732 50.7737 36.4799 55.7337C33.0932 58.0003 31.2266 61.067 31.2266 64.347C31.2266 67.627 33.0932 70.667 36.4532 72.907C40.1866 75.4137 45.0932 76.667 49.9999 76.667C54.9066 76.667 59.8132 75.4137 63.5466 72.907C66.9066 70.6403 68.7732 67.6003 68.7732 64.2937C68.7466 61.0137 66.9066 57.9737 63.5466 55.7337Z" fill="#4B4B4B"/>
<circle cx="84" cy="84" r="15.5" fill="white" stroke="#E7F1FF"/>
<path d="M83.9993 75.667C79.4077 75.667 75.666 79.4087 75.666 84.0003C75.666 88.592 79.4077 92.3337 83.9993 92.3337C88.591 92.3337 92.3327 88.592 92.3327 84.0003C92.3327 79.4087 88.591 75.667 83.9993 75.667ZM87.3327 84.6253H84.6243V87.3337C84.6243 87.6753 84.341 87.9587 83.9993 87.9587C83.6577 87.9587 83.3743 87.6753 83.3743 87.3337V84.6253H80.666C80.3243 84.6253 80.041 84.342 80.041 84.0003C80.041 83.6587 80.3243 83.3753 80.666 83.3753H83.3743V80.667C83.3743 80.3253 83.6577 80.042 83.9993 80.042C84.341 80.042 84.6243 80.3253 84.6243 80.667V83.3753H87.3327C87.6743 83.3753 87.9577 83.6587 87.9577 84.0003C87.9577 84.342 87.6743 84.6253 87.3327 84.6253Z" fill="#1E45E1"/>
</svg>
