<svg width="177" height="34" viewBox="0 0 177 34" fill="none" xmlns="http://www.w3.org/2000/svg">
<path d="M33.2607 16.9716C33.2607 19.9277 33.3173 22.9406 33.2607 25.8966C33.1475 30.3308 30.0351 33.4005 25.5645 33.4574C19.6225 33.5142 13.7372 33.5142 7.79526 33.4574C3.21148 33.4574 0.0990323 30.3308 0.0424424 25.7261C-0.0141475 19.9277 -0.0141475 14.186 0.0424424 8.3876C0.0424424 3.66925 3.21148 0.542636 8.02162 0.542636C13.8504 0.485788 19.6791 0.485788 25.4513 0.542636C30.0917 0.599483 33.1475 3.7261 33.2607 8.33075C33.3173 11.1731 33.2607 14.0724 33.2607 16.9716Z" fill="#1E45E1"/>
<path opacity="0.96" fill-rule="evenodd" clip-rule="evenodd" d="M16.5278 9.06687L8.92324 15.8402V26.6467C8.92324 27.4316 8.28984 28.0678 7.5085 28.0678C6.72715 28.0678 6.09375 27.4316 6.09375 26.6467V15.4477C6.09375 15.2181 6.12996 14.948 6.23738 14.6783C6.32014 14.4704 6.48918 14.1585 6.81397 13.9202L15.2715 6.38702L15.3179 6.35209C15.6948 6.06814 16.1397 5.93994 16.5558 5.93994C16.9495 5.93994 17.4588 6.05928 17.8697 6.45168L26.4803 14.3048L26.5045 14.3291C26.9003 14.7267 27.0886 15.2667 27.0886 15.7319V26.6467C27.0886 27.4316 26.4552 28.0678 25.6738 28.0678C24.8925 28.0678 24.2591 27.4316 24.2591 26.6467V16.1181L16.5278 9.06687Z" fill="white"/>
<path d="M16.2966 27.9766C15.6383 27.9766 14.9801 27.8113 14.3766 27.5358C13.8829 27.3153 13.1149 27.0398 13.1698 26.5438C13.2246 25.8826 13.9926 25.5519 14.4315 25.1111C14.7058 24.8355 14.9252 25.1662 15.1446 25.2764C16.2966 25.7724 17.4486 25.5519 18.1069 24.6702C18.82 23.7334 18.7103 22.5211 17.8326 21.5292C17.5035 21.1985 17.1743 20.8128 16.8452 20.5372C16.2966 20.0964 16.2418 19.7657 16.7903 19.1596C17.6132 18.2779 18.052 18.2779 18.8749 19.1596C20.1914 20.5923 21.2337 21.97 20.9046 24.0641C20.4657 26.2683 18.4909 27.9215 16.2966 27.9766Z" fill="white"/>
<path d="M12.457 18.5535C12.5119 17.0656 13.3347 15.688 14.9804 14.8614C16.6261 13.9797 18.217 14.145 19.753 15.192C20.3564 15.5778 20.3564 15.8533 19.8627 16.3492C19.2593 16.8452 18.8753 17.5065 17.833 16.9003C16.9004 16.3492 15.9679 16.7901 15.3096 17.5616C14.6513 18.3882 14.5964 19.3801 15.1999 20.3169C15.4742 20.7027 15.8033 21.0333 16.1324 21.3639C17.2296 22.5212 17.1747 22.962 15.8582 23.8437C15.6936 23.954 15.5839 24.0091 15.3644 23.954C14.0479 23.2376 12.457 20.5373 12.457 18.5535Z" fill="white"/>
<path d="M164.775 27.1511H162.816V23.9028H165.754C166.638 23.9028 167.02 23.6639 167.259 23.1384L161.407 11.1245H165.468L167.999 16.5941L169.003 19.4125H169.241L170.197 16.5702L172.466 11.1245H176.454L170.531 23.9505C169.385 26.4584 167.784 27.1511 164.775 27.1511Z" fill="#1E45E1"/>
<path d="M151.542 23.3294C148.963 23.3294 147.41 22.1351 147.41 20.1288C147.41 18.3614 148.724 17.2627 151.279 16.9999L156.415 16.4745V16.0207C156.415 14.4682 155.722 14.0383 153.811 14.0383C151.996 14.0383 151.256 14.516 151.256 15.8774V15.9729H147.649V15.9013C147.649 12.9396 150.133 10.8855 154.074 10.8855C158.063 10.8855 159.95 12.9396 159.95 16.0684V23.0905H156.606V20.3438H156.415C155.865 22.2068 154.193 23.3294 151.542 23.3294ZM151.017 19.89C151.017 20.5349 151.518 20.7976 152.569 20.7976C155.005 20.7976 156.319 20.2244 156.415 18.5286L152.259 19.0062C151.399 19.0779 151.017 19.3167 151.017 19.89Z" fill="#1E45E1"/>
<path d="M145.806 23.0906H142.844C140.049 23.0906 138.354 21.7769 138.354 18.7675V14.0861H136.467V11.1244H138.354V8.80762H141.936V11.1244H145.806V14.0861H141.936V18.3614C141.936 19.5557 142.39 19.8662 143.656 19.8662H145.806V23.0906Z" fill="#1E45E1"/>
<path d="M129.289 23.3294C125.253 23.3294 123.031 21.753 123.031 18.9824V18.9107H126.614V19.1257C126.614 20.2005 127.283 20.4871 129.313 20.4871C131.224 20.4871 131.678 20.1766 131.678 19.4601C131.678 18.7913 131.319 18.6002 129.91 18.4091L126.542 18.0031C124.154 17.7404 122.816 16.6656 122.816 14.6593C122.816 12.5574 124.608 10.8855 128.716 10.8855C132.633 10.8855 134.854 12.3663 134.854 15.2803V15.3519H131.272V15.2086C131.272 14.2293 130.794 13.7278 128.596 13.7278C126.805 13.7278 126.351 14.0383 126.351 14.8026C126.351 15.4236 126.686 15.6863 128.262 15.8774L130.818 16.1879C134.018 16.5461 135.212 17.6209 135.212 19.6034C135.212 21.8485 132.991 23.3294 129.289 23.3294Z" fill="#1E45E1"/>
<path d="M121.188 23.0906H118.227C115.432 23.0906 113.736 21.7769 113.736 18.7675V14.0861H111.85V11.1244H113.736V8.80762H117.319V11.1244H121.188V14.0861H117.319V18.3614C117.319 19.5557 117.773 19.8662 119.039 19.8662H121.188V23.0906Z" fill="#1E45E1"/>
<path d="M103.005 23.0905H99.4219V11.1243H102.742V14.301H102.957C103.291 12.3663 104.557 10.8855 106.969 10.8855C109.644 10.8855 110.743 12.7246 110.743 15.0653V17.0477H107.16V15.8057C107.16 14.4921 106.635 13.9188 105.178 13.9188C103.578 13.9188 103.005 14.6593 103.005 16.164V23.0905Z" fill="#1E45E1"/>
<path d="M88.4816 23.3294C85.9021 23.3294 84.3496 22.1351 84.3496 20.1288C84.3496 18.3614 85.6633 17.2627 88.2189 16.9999L93.3541 16.4745V16.0207C93.3541 14.4682 92.6614 14.0383 90.7507 14.0383C88.9354 14.0383 88.195 14.516 88.195 15.8774V15.9729H84.5885V15.9013C84.5885 12.9396 87.0724 10.8855 91.0134 10.8855C95.0021 10.8855 96.889 12.9396 96.889 16.0684V23.0905H93.5452V20.3438H93.3541C92.8047 22.2068 91.1328 23.3294 88.4816 23.3294ZM87.9562 19.89C87.9562 20.5349 88.4578 20.7976 89.5087 20.7976C91.9449 20.7976 93.2585 20.2244 93.3541 18.5286L89.1982 19.0062C88.3383 19.0779 87.9562 19.3167 87.9562 19.89Z" fill="#1E45E1"/>
<path d="M64.0182 23.0905H60.4355V11.1243H63.7555V14.7548H63.9466C64.2332 12.7485 65.4274 10.8855 68.4369 10.8855C71.2075 10.8855 72.6167 12.5813 72.8794 14.8026H73.0944C73.381 12.7724 74.5991 10.8855 77.6802 10.8855C80.7613 10.8855 82.266 12.9157 82.266 15.6385V23.0905H78.6833V16.8328C78.6833 14.8503 77.9907 14.1099 75.9366 14.1099C73.7631 14.1099 73.1421 14.9698 73.1421 17.0477V23.0905H69.5594V16.8328C69.5594 14.8503 68.8668 14.1099 66.8127 14.1099C64.6392 14.1099 64.0182 14.9698 64.0182 17.0477V23.0905Z" fill="#1E45E1"/>
<path d="M51.1424 23.3295C46.2939 23.3295 43.571 21.4187 43.571 17.6927V17.5494H47.1537V17.9793C47.1537 19.4602 47.8941 20.0573 51.1424 20.0573C54.0086 20.0573 54.6774 19.6274 54.6774 18.5526C54.6774 17.5733 54.128 17.215 52.48 16.9284L47.9897 16.2835C45.1235 15.8297 43.4277 14.3966 43.4277 11.7932C43.4277 9.38088 45.3863 6.84912 50.7603 6.84912C55.6805 6.84912 57.9734 9.11815 57.9734 12.4859V12.6292H54.3669V12.2948C54.3669 10.7662 53.5787 10.1213 50.402 10.1213C47.8225 10.1213 47.0343 10.6229 47.0343 11.6499C47.0343 12.5814 47.5598 12.9158 48.8973 13.1546L53.3876 13.8712C56.9703 14.4444 58.26 16.188 58.26 18.3854C58.26 20.9888 56.2299 23.3295 51.1424 23.3295Z" fill="#1E45E1"/>
</svg>
