<svg width="134" height="26" viewBox="0 0 134 26" fill="none" xmlns="http://www.w3.org/2000/svg">
<path d="M25.2582 12.5085C25.2582 14.7534 25.3012 17.0414 25.2582 19.2862C25.1723 22.6535 22.8087 24.9847 19.4137 25.0279C14.9014 25.071 10.432 25.071 5.91973 25.0279C2.4388 25.0279 0.0752052 22.6535 0.0322308 19.1567C-0.0107436 14.7534 -0.0107436 10.3932 0.0322308 5.98985C0.0322308 2.40673 2.4388 0.0323776 6.09162 0.0323776C10.518 -0.0107925 14.9444 -0.0107925 19.3277 0.0323776C22.8517 0.0755477 25.1723 2.4499 25.2582 5.94668C25.3012 8.10519 25.2582 10.3069 25.2582 12.5085Z" fill="#1E45E1"/>
<path opacity="0.96" fill-rule="evenodd" clip-rule="evenodd" d="M12.5525 6.50594L6.77763 11.6497V19.8561C6.77763 20.4521 6.29662 20.9353 5.70327 20.9353C5.10991 20.9353 4.62891 20.4521 4.62891 19.8561V11.3515C4.62891 11.1772 4.6564 10.9721 4.73798 10.7672C4.80083 10.6094 4.92919 10.3725 5.17584 10.1916L11.5985 4.47086L11.6337 4.44433C11.9199 4.2287 12.2578 4.13135 12.5738 4.13135C12.8728 4.13135 13.2595 4.22197 13.5716 4.51997L20.1105 10.4837L20.1288 10.5021C20.4294 10.804 20.5724 11.2141 20.5724 11.5674V19.8561C20.5724 20.4521 20.0914 20.9353 19.4981 20.9353C18.9047 20.9353 18.4237 20.4521 18.4237 19.8561V11.8606L12.5525 6.50594Z" fill="white"/>
<path d="M12.3766 20.8663C11.8767 20.8663 11.3768 20.7408 10.9186 20.5315C10.5437 20.3641 9.96046 20.1549 10.0021 19.7783C10.0438 19.2761 10.627 19.025 10.9603 18.6902C11.1685 18.481 11.3352 18.7321 11.5018 18.8158C12.3766 19.1924 13.2515 19.025 13.7514 18.3554C14.2929 17.644 14.2096 16.7234 13.5431 15.9701C13.2931 15.719 13.0432 15.4261 12.7932 15.2168C12.3766 14.882 12.335 14.631 12.7516 14.1706C13.3764 13.5011 13.7097 13.5011 14.3346 14.1706C15.3344 15.2587 16.1259 16.3049 15.8759 17.8951C15.5427 19.569 14.043 20.8245 12.3766 20.8663Z" fill="white"/>
<path d="M9.46094 13.7102C9.5026 12.5803 10.1275 11.5341 11.3772 10.9064C12.627 10.2368 13.8351 10.3624 15.0015 11.1575C15.4597 11.4504 15.4597 11.6597 15.0848 12.0363C14.6266 12.4129 14.335 12.9151 13.5435 12.4548C12.8353 12.0363 12.1271 12.3711 11.6272 12.9569C11.1273 13.5847 11.0856 14.3379 11.5439 15.0493C11.7521 15.3423 12.0021 15.5934 12.252 15.8445C13.0852 16.7233 13.0436 17.058 12.0438 17.7276C11.9188 17.8113 11.8355 17.8532 11.6688 17.8113C10.669 17.2673 9.46094 15.2167 9.46094 13.7102Z" fill="white"/>
<path d="M125.132 20.2385H123.644V17.7717H125.875C126.546 17.7717 126.837 17.5903 127.018 17.1913L122.574 8.06787H125.658L127.58 12.2215L128.342 14.3617H128.523L129.249 12.2033L130.972 8.06787H134.001L129.503 17.808C128.632 19.7124 127.417 20.2385 125.132 20.2385Z" fill="#1E45E1"/>
<path d="M115.083 17.3366C113.124 17.3366 111.945 16.4297 111.945 14.9061C111.945 13.5639 112.943 12.7296 114.884 12.53L118.783 12.131V11.7864C118.783 10.6074 118.257 10.2809 116.806 10.2809C115.428 10.2809 114.866 10.6437 114.866 11.6776V11.7501H112.127V11.6957C112.127 9.44658 114.013 7.88672 117.006 7.88672C120.035 7.88672 121.468 9.44658 121.468 11.8227V17.1552H118.928V15.0694H118.783C118.366 16.4841 117.096 17.3366 115.083 17.3366ZM114.684 14.7247C114.684 15.2145 115.065 15.414 115.863 15.414C117.713 15.414 118.711 14.9787 118.783 13.6909L115.627 14.0536C114.974 14.108 114.684 14.2894 114.684 14.7247Z" fill="#1E45E1"/>
<path d="M110.725 17.1551H108.476C106.354 17.1551 105.066 16.1575 105.066 13.8721V10.3171H103.633V8.06798H105.066V6.30859H107.786V8.06798H110.725V10.3171H107.786V13.5638C107.786 14.4707 108.131 14.7065 109.092 14.7065H110.725V17.1551Z" fill="#1E45E1"/>
<path d="M98.1849 17.3366C95.1196 17.3366 93.4328 16.1395 93.4328 14.0355V13.9811H96.1535V14.1443C96.1535 14.9605 96.6613 15.1782 98.2031 15.1782C99.6541 15.1782 99.9987 14.9424 99.9987 14.3983C99.9987 13.8904 99.7266 13.7453 98.6565 13.6002L96.099 13.2918C94.2853 13.0923 93.2695 12.2761 93.2695 10.7525C93.2695 9.15638 94.6299 7.88672 97.7496 7.88672C100.724 7.88672 102.411 9.01127 102.411 11.2241V11.2785H99.6904V11.1697C99.6904 10.426 99.3276 10.0451 97.6589 10.0451C96.2986 10.0451 95.9539 10.2809 95.9539 10.8613C95.9539 11.3329 96.2079 11.5325 97.405 11.6776L99.3457 11.9133C101.776 12.1854 102.683 13.0016 102.683 14.5071C102.683 16.212 100.996 17.3366 98.1849 17.3366Z" fill="#1E45E1"/>
<path d="M92.0334 17.1551H89.7842C87.6621 17.1551 86.3743 16.1575 86.3743 13.8721V10.3171H84.9414V8.06798H86.3743V6.30859H89.095V8.06798H92.0334V10.3171H89.095V13.5638C89.095 14.4707 89.4396 14.7065 90.4009 14.7065H92.0334V17.1551Z" fill="#1E45E1"/>
<path d="M78.2246 17.1552H75.5039V8.0681H78.0251V10.4804H78.1883C78.4423 9.01127 79.4036 7.88672 81.2355 7.88672C83.267 7.88672 84.1013 9.28334 84.1013 11.0609V12.5663H81.3806V11.6231C81.3806 10.6256 80.9816 10.1902 79.8752 10.1902C78.6599 10.1902 78.2246 10.7525 78.2246 11.8952V17.1552Z" fill="#1E45E1"/>
<path d="M67.1965 17.3366C65.2376 17.3366 64.0586 16.4297 64.0586 14.9061C64.0586 13.5639 65.0562 12.7296 66.9969 12.53L70.8966 12.131V11.7864C70.8966 10.6074 70.3706 10.2809 68.9196 10.2809C67.5411 10.2809 66.9788 10.6437 66.9788 11.6776V11.7501H64.24V11.6957C64.24 9.44658 66.1263 7.88672 69.1191 7.88672C72.1481 7.88672 73.581 9.44658 73.581 11.8227V17.1552H71.0417V15.0694H70.8966C70.4794 16.4841 69.2098 17.3366 67.1965 17.3366ZM66.7974 14.7247C66.7974 15.2145 67.1783 15.414 67.9764 15.414C69.8265 15.414 70.8241 14.9787 70.8966 13.6909L67.7406 14.0536C67.0876 14.108 66.7974 14.2894 66.7974 14.7247Z" fill="#1E45E1"/>
<path d="M48.6152 17.1552H45.8945V8.0681H48.4157V10.8251H48.5608C48.7785 9.30148 49.6854 7.88672 51.9707 7.88672C54.0748 7.88672 55.1449 9.17451 55.3444 10.8613H55.5077C55.7253 9.31962 56.6503 7.88672 58.9901 7.88672C61.3299 7.88672 62.4726 9.42845 62.4726 11.4962V17.1552H59.7519V12.4031C59.7519 10.8976 59.2259 10.3353 57.6661 10.3353C56.0155 10.3353 55.5439 10.9883 55.5439 12.5663V17.1552H52.8232V12.4031C52.8232 10.8976 52.2972 10.3353 50.7374 10.3353C49.0868 10.3353 48.6152 10.9883 48.6152 12.5663V17.1552Z" fill="#1E45E1"/>
<path d="M38.839 17.3365C35.157 17.3365 33.0893 15.8854 33.0893 13.0559V12.9471H35.81V13.2736C35.81 14.3981 36.3723 14.8516 38.839 14.8516C41.0156 14.8516 41.5235 14.5251 41.5235 13.7089C41.5235 12.9652 41.1063 12.6932 39.8548 12.4755L36.4448 11.9858C34.2683 11.6412 32.9805 10.5529 32.9805 8.57585C32.9805 6.74391 34.4678 4.82129 38.5488 4.82129C42.2852 4.82129 44.0265 6.5444 44.0265 9.10185V9.21068H41.2877V8.95675C41.2877 7.79592 40.6891 7.30619 38.2768 7.30619C36.3179 7.30619 35.7193 7.68709 35.7193 8.46702C35.7193 9.1744 36.1183 9.42833 37.1341 9.60971L40.544 10.1539C43.2647 10.5892 44.2441 11.9132 44.2441 13.5819C44.2441 15.559 42.7024 17.3365 38.839 17.3365Z" fill="#1E45E1"/>
</svg>
