<svg width="177" height="34" viewBox="0 0 177 34" fill="none" xmlns="http://www.w3.org/2000/svg">
<path d="M33.2607 16.9716C33.2607 19.9277 33.3173 22.9406 33.2607 25.8966C33.1475 30.3308 30.0351 33.4005 25.5645 33.4574C19.6225 33.5142 13.7372 33.5142 7.79526 33.4574C3.21148 33.4574 0.0990323 30.3308 0.0424424 25.7261C-0.0141475 19.9277 -0.0141475 14.186 0.0424424 8.3876C0.0424424 3.66925 3.21148 0.542636 8.02162 0.542636C13.8504 0.485788 19.6791 0.485788 25.4513 0.542636C30.0917 0.599483 33.1475 3.7261 33.2607 8.33075C33.3173 11.1731 33.2607 14.0724 33.2607 16.9716Z" fill="#1E45E1"/>
<path opacity="0.96" fill-rule="evenodd" clip-rule="evenodd" d="M16.5278 9.06687L8.92324 15.8402V26.6467C8.92324 27.4316 8.28984 28.0678 7.5085 28.0678C6.72715 28.0678 6.09375 27.4316 6.09375 26.6467V15.4477C6.09375 15.2181 6.12996 14.948 6.23738 14.6783C6.32014 14.4704 6.48918 14.1585 6.81397 13.9202L15.2715 6.38702L15.3179 6.35209C15.6948 6.06814 16.1397 5.93994 16.5558 5.93994C16.9495 5.93994 17.4588 6.05928 17.8697 6.45168L26.4803 14.3048L26.5045 14.3291C26.9003 14.7267 27.0886 15.2667 27.0886 15.7319V26.6467C27.0886 27.4316 26.4552 28.0678 25.6738 28.0678C24.8925 28.0678 24.2591 27.4316 24.2591 26.6467V16.1181L16.5278 9.06687Z" fill="white"/>
<path d="M16.2976 27.9769C15.6393 27.9769 14.981 27.8115 14.3776 27.536C13.8839 27.3156 13.1159 27.0401 13.1708 26.5441C13.2256 25.8828 13.9936 25.5522 14.4325 25.1113C14.7067 24.8358 14.9262 25.1664 15.1456 25.2766C16.2976 25.7726 17.4496 25.5522 18.1079 24.6705C18.821 23.7337 18.7113 22.5213 17.8336 21.5294C17.5044 21.1988 17.1753 20.813 16.8462 20.5375C16.2976 20.0966 16.2427 19.766 16.7913 19.1598C17.6142 18.2781 18.053 18.2781 18.8759 19.1598C20.1924 20.5926 21.2347 21.9702 20.9056 24.0643C20.4667 26.2686 18.4919 27.9218 16.2976 27.9769Z" fill="white"/>
<path d="M12.457 18.5535C12.5119 17.0656 13.3347 15.688 14.9804 14.8614C16.6261 13.9797 18.217 14.145 19.753 15.192C20.3564 15.5778 20.3564 15.8533 19.8627 16.3492C19.2593 16.8452 18.8753 17.5065 17.833 16.9003C16.9004 16.3492 15.9679 16.7901 15.3096 17.5616C14.6513 18.3882 14.5964 19.3801 15.1999 20.3169C15.4742 20.7027 15.8033 21.0333 16.1324 21.3639C17.2296 22.5212 17.1747 22.962 15.8582 23.8437C15.6936 23.954 15.5839 24.0091 15.3644 23.954C14.0479 23.2376 12.457 20.5373 12.457 18.5535Z" fill="white"/>
<path d="M164.774 27.1511H162.815V23.9028H165.753C166.637 23.9028 167.019 23.6639 167.258 23.1384L161.406 11.1245H165.467L167.998 16.5941L169.002 19.4125H169.24L170.196 16.5702L172.465 11.1245H176.454L170.53 23.9505C169.384 26.4584 167.783 27.1511 164.774 27.1511Z" fill="#1E45E1"/>
<path d="M151.542 23.3296C148.963 23.3296 147.41 22.1354 147.41 20.1291C147.41 18.3616 148.724 17.2629 151.279 17.0002L156.415 16.4747V16.0209C156.415 14.4684 155.722 14.0385 153.811 14.0385C151.996 14.0385 151.256 14.5162 151.256 15.8776V15.9732H147.649V15.9015C147.649 12.9398 150.133 10.8857 154.074 10.8857C158.063 10.8857 159.95 12.9398 159.95 16.0687V23.0908H156.606V20.344H156.415C155.865 22.207 154.193 23.3296 151.542 23.3296ZM151.017 19.8902C151.017 20.5351 151.518 20.7978 152.569 20.7978C155.005 20.7978 156.319 20.2246 156.415 18.5288L152.259 19.0065C151.399 19.0781 151.017 19.317 151.017 19.8902Z" fill="#1E45E1"/>
<path d="M145.804 23.0906H142.842C140.048 23.0906 138.352 21.7769 138.352 18.7675V14.0861H136.465V11.1244H138.352V8.80762H141.934V11.1244H145.804V14.0861H141.934V18.3614C141.934 19.5557 142.388 19.8662 143.654 19.8662H145.804V23.0906Z" fill="#1E45E1"/>
<path d="M129.289 23.3296C125.253 23.3296 123.031 21.7532 123.031 18.9826V18.911H126.614V19.1259C126.614 20.2007 127.283 20.4873 129.313 20.4873C131.224 20.4873 131.678 20.1768 131.678 19.4603C131.678 18.7915 131.319 18.6005 129.91 18.4094L126.542 18.0033C124.154 17.7406 122.816 16.6658 122.816 14.6595C122.816 12.5577 124.608 10.8857 128.716 10.8857C132.633 10.8857 134.854 12.3666 134.854 15.2805V15.3522H131.272V15.2088C131.272 14.2296 130.794 13.728 128.596 13.728C126.805 13.728 126.351 14.0385 126.351 14.8028C126.351 15.4238 126.686 15.6865 128.262 15.8776L130.818 16.1881C134.018 16.5464 135.212 17.6212 135.212 19.6036C135.212 21.8488 132.991 23.3296 129.289 23.3296Z" fill="#1E45E1"/>
<path d="M121.187 23.0906H118.225C115.43 23.0906 113.735 21.7769 113.735 18.7675V14.0861H111.848V11.1244H113.735V8.80762H117.317V11.1244H121.187V14.0861H117.317V18.3614C117.317 19.5557 117.771 19.8662 119.037 19.8662H121.187V23.0906Z" fill="#1E45E1"/>
<path d="M103.001 23.0908H99.418V11.1246H102.738V14.3012H102.953C103.287 12.3666 104.553 10.8857 106.965 10.8857C109.641 10.8857 110.739 12.7249 110.739 15.0655V17.048H107.157V15.806C107.157 14.4923 106.631 13.9191 105.174 13.9191C103.574 13.9191 103.001 14.6595 103.001 16.1642V23.0908Z" fill="#1E45E1"/>
<path d="M88.4797 23.3296C85.9002 23.3296 84.3477 22.1354 84.3477 20.1291C84.3477 18.3616 85.6613 17.2629 88.217 17.0002L93.3521 16.4747V16.0209C93.3521 14.4684 92.6595 14.0385 90.7487 14.0385C88.9335 14.0385 88.1931 14.5162 88.1931 15.8776V15.9732H84.5865V15.9015C84.5865 12.9398 87.0705 10.8857 91.0114 10.8857C95.0002 10.8857 96.887 12.9398 96.887 16.0687V23.0908H93.5432V20.344H93.3521C92.8028 22.207 91.1309 23.3296 88.4797 23.3296ZM87.9542 19.8902C87.9542 20.5351 88.4558 20.7978 89.5067 20.7978C91.9429 20.7978 93.2566 20.2246 93.3521 18.5288L89.1962 19.0065C88.3364 19.0781 87.9542 19.317 87.9542 19.8902Z" fill="#1E45E1"/>
<path d="M64.0163 23.0908H60.4336V11.1246H63.7535V14.755H63.9446C64.2312 12.7487 65.4255 10.8857 68.4349 10.8857C71.2055 10.8857 72.6147 12.5815 72.8774 14.8028H73.0924C73.379 12.7726 74.5971 10.8857 77.6782 10.8857C80.7594 10.8857 82.2641 12.9159 82.2641 15.6388V23.0908H78.6814V16.833C78.6814 14.8506 77.9887 14.1102 75.9347 14.1102C73.7612 14.1102 73.1402 14.97 73.1402 17.048V23.0908H69.5575V16.833C69.5575 14.8506 68.8648 14.1102 66.8108 14.1102C64.6373 14.1102 64.0163 14.97 64.0163 17.048V23.0908Z" fill="#1E45E1"/>
<path d="M51.1405 23.3295C46.2919 23.3295 43.5691 21.4187 43.5691 17.6927V17.5494H47.1518V17.9793C47.1518 19.4602 47.8922 20.0573 51.1405 20.0573C54.0066 20.0573 54.6754 19.6274 54.6754 18.5526C54.6754 17.5733 54.1261 17.215 52.478 16.9284L47.9877 16.2835C45.1216 15.8297 43.4258 14.3966 43.4258 11.7932C43.4258 9.38088 45.3843 6.84912 50.7583 6.84912C55.6786 6.84912 57.9715 9.11815 57.9715 12.4859V12.6292H54.3649V12.2948C54.3649 10.7662 53.5767 10.1213 50.4001 10.1213C47.8205 10.1213 47.0323 10.6229 47.0323 11.6499C47.0323 12.5814 47.5578 12.9158 48.8953 13.1546L53.3856 13.8712C56.9683 14.4444 58.2581 16.188 58.2581 18.3854C58.2581 20.9888 56.2279 23.3295 51.1405 23.3295Z" fill="#1E45E1"/>
</svg>
