<svg width="20" height="20" viewBox="0 0 20 20" fill="none" xmlns="http://www.w3.org/2000/svg">
<path d="M7.49935 18.3337H12.4993C16.666 18.3337 18.3327 16.667 18.3327 12.5003V7.50033C18.3327 3.33366 16.666 1.66699 12.4993 1.66699H7.49935C3.33268 1.66699 1.66602 3.33366 1.66602 7.50033V12.5003C1.66602 16.667 3.33268 18.3337 7.49935 18.3337Z" stroke="#4B4B4B" stroke-width="1.2" stroke-linecap="round" stroke-linejoin="round"/>
<path d="M12.9167 15.4163C13.8333 15.4163 14.5833 14.6663 14.5833 13.7497V6.24967C14.5833 5.33301 13.8333 4.58301 12.9167 4.58301C12 4.58301 11.25 5.33301 11.25 6.24967V13.7497C11.25 14.6663 11.9917 15.4163 12.9167 15.4163Z" stroke="#4B4B4B" stroke-width="1.2" stroke-linecap="round" stroke-linejoin="round"/>
<path d="M7.08268 15.417C7.99935 15.417 8.74935 14.667 8.74935 13.7503V10.8337C8.74935 9.91699 7.99935 9.16699 7.08268 9.16699C6.16602 9.16699 5.41602 9.91699 5.41602 10.8337V13.7503C5.41602 14.667 6.15768 15.417 7.08268 15.417Z" stroke="#4B4B4B" stroke-width="1.2" stroke-linecap="round" stroke-linejoin="round"/>
</svg>
